<svg xmlns="http://www.w3.org/2000/svg" viewBox="0 0 2200 2200">
  <g>
    <path fill="#00B1FF" d="M1842.197,1053.843l-927.602,650.641c-71.92,50.43-167.122-18.108-142.1-102.303l92.664-311.821
      H657.942c-24.649,0-44.635-19.985-44.635-44.635c0-12.312,4.999-23.48,13.071-31.552c8.084-8.071,19.239-13.071,31.564-13.071
      h335.549c24.649,0,44.635-19.986,44.635-44.635c0-24.649-19.985-44.622-44.635-44.622H555.453
      c-24.649,0-44.622-19.985-44.622-44.635c0-12.325,4.987-23.48,13.071-31.564c8.071-8.071,19.227-13.071,31.551-13.071h196.708
      c24.649,0,44.635-19.973,44.635-44.622c0-24.649-19.986-44.635-44.635-44.635H555.453c-24.649,0-44.622-19.985-44.622-44.635
      c0-12.325,4.987-23.48,13.071-31.551c8.071-8.084,19.227-13.071,31.551-13.071h312.965c24.649,0,44.635-19.985,44.635-44.635
      c0-24.649-19.985-44.635-44.635-44.635H657.942c-24.649,0-44.635-19.973-44.635-44.622c0-12.325,4.999-23.48,13.071-31.564
      c8.084-8.071,19.239-13.071,31.564-13.071H865.16l-92.664-311.821c-25.022-84.195,70.179-152.733,142.1-102.29l927.602,650.629
      C1894.816,938.967,1894.816,1016.931,1842.197,1053.843z"/>
    <path fill="#00B1FF" d="M505.319,754.794h-44.634c-24.648,0-44.628-19.981-44.628-44.628s19.981-44.628,44.628-44.628h44.634
      c24.648,0,44.628,19.981,44.628,44.628S529.967,754.794,505.319,754.794z"/>
    <path fill="#00B1FF" d="M407.613,1111.847h-44.64c-24.651,0-44.635-19.984-44.635-44.635s19.984-44.635,44.635-44.635h44.64
      c24.651,0,44.635,19.984,44.635,44.635S432.265,1111.847,407.613,1111.847z"/>
  </g>
</svg>
